PathFileType	4	(X/Y/Z)	RBDS027\RBDS027runT45.trc
DataRate	CameraRate	NumFrames	NumMarkers	Units	OrigDataRate	OrigDataStartFrame	OrigNumFrames
150.000000	150.000000	5	33	mm	150.000000	3937	4500
Frame#	Time	L.ASIS			L.Heel.Bottom			L.Heel.Lateral			L.Heel.Top			L.Iliac.Crest			L.MT1			L.MT5			L.PSIS			L.Shank.Bottom.Lateral			L.Shank.Bottom.Medial			L.Shank.Top.Lateral			L.Shank.Top.Medial			L.Thigh.Bottom.Lateral			L.Thigh.Bottom.Medial			L.Thigh.Top.Lateral			L.Thigh.Top.Medial			R.ASIS			R.ASY			R.Heel.Bottom			R.Heel.Lateral			R.Heel.Top			R.Iliac.Crest			R.MT1			R.MT5			R.PSIS			R.Shank.Bottom.Lateral			R.Shank.Bottom.Medial			R.Shank.Top.Lateral			R.Shank.Top.Medial			R.Thigh.Bottom.Lateral			R.Thigh.Bottom.Medial			R.Thigh.Top.Lateral			R.Thigh.Top.Medial			
		X1	Y1	Z1	X2	Y2	Z2	X3	Y3	Z3	X4	Y4	Z4	X5	Y5	Z5	X6	Y6	Z6	X7	Y7	Z7	X8	Y8	Z8	X9	Y9	Z9	X10	Y10	Z10	X11	Y11	Z11	X12	Y12	Z12	X13	Y13	Z13	X14	Y14	Z14	X15	Y15	Z15	X16	Y16	Z16	X17	Y17	Z17	X18	Y18	Z18	X19	Y19	Z19	X20	Y20	Z20	X21	Y21	Z21	X22	Y22	Z22	X23	Y23	Z23	X24	Y24	Z24	X25	Y25	Z25	X26	Y26	Z26	X27	Y27	Z27	X28	Y28	Z28	X29	Y29	Z29	X30	Y30	Z30	X31	Y31	Z31	X32	Y32	Z32	X33	Y33	Z33	

3938	26.24666666666667	2069.697946450955	897.3357941947099	876.2490540801045	2182.403111722031	50.59420061757474	946.8078485889741	2208.504417678387	75.43175314957823	901.5399655345246	2185.300588893332	99.93056534940099	946.2742709386093	2008.615074313384	982.4974923835557	843.9009005724449	2391.990787204168	109.1537004314153	983.401493801278	2357.460721066654	94.54007972519901	877.3165485455478	1915.275082762605	937.880672051352	955.265717286817	2222.363124063249	195.8972358045078	885.3675917948431	2187.875389456126	191.2381235082823	928.7773720090547	2193.93933874588	269.1144552076826	870.8480947310702	2164.057050251372	267.2051165777102	916.0149780823565	2163.343867398816	584.2611941425398	843.6520431873803	2112.601537170373	548.8452677292456	878.4529153469283	2089.398146462048	662.802850332189	820.9940628208379	2041.635803799932	630.7579769353141	856.9654822186416	2073.312215987831	871.792815453793	1128.24590536638	1456.541171307928	204.3728736338882	1091.480464843684	1353.76295852311	352.4338657050176	1032.543883938677	1368.952022176649	336.9399184858614	1083.29426918847	1398.088643232039	357.5566305924819	1042.477678875377	2070.598101704075	965.0806163212789	1137.622114797903	1428.976495548901	146.7440268278782	1041.695593293861	1394.486667507616	196.7951519465948	1142.204525914164	1924.4629095312	944.4616580282521	1054.335946137721	1470.435504626196	360.1718031058513	1108.60304199391	1464.435048972052	382.422763086177	1063.169763519716	1527.652841657762	419.6049061212788	1128.602518763903	1517.449095336115	440.8130323067278	1080.721530422003	1790.569019544043	602.402903423247	1155.514185634701	1753.307478988324	629.6485578562502	1098.983530794992	1840.816957779405	699.5988846477297	1164.369608472478	1807.394073355552	724.8315514893983	1108.581167924852	
3939	26.25333333333333	2070.199421385929	896.703254005928	877.9558985189146	2210.423154888149	41.12876728245779	948.8715280409139	2235.081912333402	67.48922252991221	903.5561809966923	2208.690970548813	90.61392935565996	947.2343550492666	2008.7708971057	981.1452334963177	844.4965204696454	2413.588526765217	120.0716697003752	987.015919848993	2382.497133721364	100.0962900516509	880.8064745520893	1915.665214160492	937.9928663188939	955.5857126855361	2238.414915816531	190.7992287267231	885.6998274472907	2203.682658864499	184.0773615707311	928.6550168855713	2204.623762883574	261.4544955922873	869.8347205470535	2174.47645560721	258.029968209357	914.6863078440884	2156.732815353782	577.6018899100575	841.865092550948	2106.227078791917	544.1370883539918	878.5142970963506	2084.524231945479	658.0054661535112	819.972495721026	2036.794580375184	627.6780985262734	857.2533779511568	2073.213176134668	872.5572214595551	1129.544086013511	1444.332777445401	220.817845957638	1092.790739221573	1345.330799545826	371.4080915409351	1034.334837953482	1360.987887102519	355.9880417153146	1084.932018897882	1389.932968602895	375.2378135813043	1043.36980445095	2068.915012419289	966.2925655230127	1138.119917563388	1414.111200730281	163.5742160041221	1044.284765763997	1383.272873264698	215.7160422190331	1144.880938938796	1924.50676988496	944.8537414670825	1054.601170232432	1464.533874654873	374.6833867716769	1109.268240588762	1459.176877971473	397.5198220810344	1064.063161599207	1525.093598024376	430.7897104179921	1128.842580701929	1515.442667593308	452.8498213641762	1081.292356883944	1793.795409788555	600.4523551868939	1154.832404757151	1755.900736296748	628.2934053448195	1099.100686659879	1843.559663231619	697.6867870731343	1164.877562854643	1809.15305064494	723.6169637417844	1110.090508366378	
3940	26.26	2070.581985018015	895.8277477545913	879.6470452683855	2234.964852592642	33.71627924424978	950.9969666476819	2258.390559325028	61.1420126331612	905.638406141774	2229.035475226849	83.06295889449397	948.1257901384197	2008.850423700912	979.3953823160866	845.042109697649	2430.965328972467	130.9802375440657	990.5810589407698	2403.665674761788	105.7265297153511	884.3436788755946	1915.834852496991	937.5315624800568	955.7661609669314	2251.944825981366	186.6568161634903	886.0574426585661	2217.035050876911	178.1114179279683	928.6092697346397	2213.415965353654	254.7486228340494	869.0420620047414	2183.08290086694	249.9930708730874	913.615214587489	2149.864418424448	570.852847357281	839.984985092423	2099.784423764289	539.4660239401583	878.7967467123078	2079.364380198841	653.0120166282107	818.8725077138298	2031.811625513635	624.4640621881045	857.6631004358566	2073.070366164166	873.0552518999976	1130.922980678067	1433.16296891363	237.5328121667915	1093.581324975352	1338.923187801766	391.414335989065	1036.542821645887	1355.040518006688	375.6353227272917	1086.85580375722	1383.769575178984	393.6127759049289	1044.588758418359	2066.433968064217	967.3667593615257	1138.807104712433	1399.82148012058	181.3402946317824	1046.148415409759	1373.228073937014	234.9815058374306	1147.183772659848	1924.255219846046	944.5410085508363	1054.715475389059	1460.335198005798	389.1448836019805	1110.036086675789	1455.703138708425	412.6473631823893	1065.091311035851	1524.265936641229	441.4707638441563	1129.147163489848	1515.251715898006	464.5282490878189	1082.003346110448	1798.378826412157	596.7958865768559	1154.355035468647	1759.590804174471	625.2870845660547	1099.59250011813	1847.254892019856	694.2356941103059	1165.880716753816	1811.573537744242	720.9100088288156	1112.291697979883	
3941	26.26666666666667	2070.803863835256	894.7496296882522	881.2308704833259	2255.327076529628	27.99968068600614	953.2146387960572	2277.747573755927	56.04504310608415	907.7911590376719	2245.787986578	77.01636554593439	949.0436972635647	2008.895690326078	977.363769773923	845.5522596265622	2444.12399386938	140.9906506271382	993.8674749592711	2420.601652473322	110.6905963301986	887.7431882385717	1915.802526005547	936.4906824080921	955.8738037212348	2262.600752429499	183.159360678225	886.5242539515822	2227.636235738969	173.0756063636714	928.8027140501748	2220.038687325544	248.8602524535402	868.6314436222898	2189.648452142455	242.9866293835729	913.0256307354074	2143.01158103692	564.3100903152052	838.2352431800599	2093.466849770895	534.9981554257428	879.3110128265868	2074.135968773427	648.0646128879413	817.8568149128844	2026.856217973933	621.2547485356913	858.219824121254	2072.972270400957	873.1636805069214	1132.31162652558	1423.233352526596	254.4427387884817	1093.829520613893	1335.055851951603	412.3560936920848	1039.114613114088	1351.493008903592	395.7442690539466	1089.019545769617	1380.056459424278	412.536219931727	1046.137173885273	2063.337834041697	968.1749988659662	1139.675722661374	1386.392798650723	200.0676592482693	1047.192180795985	1364.485620087556	254.5191458579478	1148.999660095847	1923.791595765939	943.4754201633368	1054.741270393471	1458.04280031874	403.3978717672981	1110.92832369753	1454.234142568666	427.6342051578826	1066.279140062297	1525.272290126986	451.5133392219587	1129.555413489841	1517.005654266654	475.6991746257327	1082.892586897426	1804.182530602798	591.5135449576535	1154.120706719094	1764.281112320039	620.6257350293791	1100.433167279717	1851.794125617095	689.3167061945609	1167.296500831611	1814.61703240008	716.6948009301568	1115.031843821542	
3942	26.27333333333333	2070.812179274963	893.4943212277976	882.6197476018071	2270.928661405173	23.6035384222534	955.5667436138825	2292.572283842167	51.85007291934375	910.0292920232448	2258.51270619275	72.19384508303307	950.1122996376157	2008.924747053381	975.1522538102313	846.0443263358326	2453.192480625039	149.2274300777672	996.6679970301778	2433.035308948665	114.2918182224371	890.8281866808022	1915.583225843437	934.8625724872389	956.0023624953826	2270.131950054964	179.9602616468007	887.1920889811283	2235.273842356272	168.6707323481012	929.3837064754359	2224.301578347739	243.5995769074239	868.7348114346605	2194.012049109044	236.8543145047951	913.0922603040708	2136.438536568939	558.2091927406605	836.838057198357	2087.451680231046	530.8382144780305	880.0668606756409	2069.043478832093	643.3520168612264	817.0916039466298	2022.078639905794	618.1400084681588	858.9532008401511	2073.004733452804	872.7656086565909	1133.636045983246	1414.751714512873	271.4820083702583	1093.545576100643	1334.168088702373	434.0204956594739	1041.957723015003	1350.655912150581	416.112726004554	1091.346429476485	1379.166856282408	431.7810761788331	1047.978342652378	2059.842690804079	968.5621688473702	1140.717407034941	1374.16186665046	219.7456619734188	1047.371350458246	1357.197429025158	274.2712743997065	1150.241775375872	1923.210988280965	941.6108267036823	1054.765870678378	1457.809098848	417.2796476259089	1111.944073591804	1454.937360242075	442.3017195117569	1067.631420763161	1528.170795065146	460.7941734822379	1130.095003476214	1520.78854597959	486.2148391674769	1083.983863200245	1811.030876148521	584.7390943711217	1154.140457315175	1769.843274551399	614.3469797272961	1101.564166933475	1857.038029297559	683.0497819225744	1168.995500368641	1818.217616763168	711.0014423550407	1118.108681858494	
